<?xml version="1.0"?>
<svg xmlns="http://www.w3.org/2000/svg" xmlns:xlink="http://www.w3.org/1999/xlink" version="1.1" id="Layer_1" x="0px" y="0px" width="100%" viewBox="0 0 500 500" enable-background="new 0 0 500 500" xml:space="preserve" style="background-color:transparent;">
<path fill="none" opacity="1.000000" stroke="none" d=" M271.000000,501.000000   C180.666687,501.000000 90.833374,501.000000 1.000048,501.000000   C1.000032,334.333405 1.000032,167.666794 1.000016,1.000138   C167.666565,1.000092 334.333130,1.000092 500.999756,1.000046   C500.999847,167.666519 500.999847,334.333038 500.999939,500.999786   C424.500000,501.000000 348.000000,501.000000 271.000000,501.000000  M272.036530,478.702759   C275.015228,478.385284 278.009491,478.173096 280.970276,477.734741   C336.555389,469.504364 383.958099,445.456268 421.274841,403.220581   C468.781830,349.451385 487.018127,286.291656 476.617126,215.630325   C468.649963,161.503876 443.510925,115.738731 402.064911,79.712753   C346.084717,31.053225 280.867096,13.868194 208.226730,26.654190   C156.415482,35.773888 113.224190,61.459286 78.615410,101.006508   C45.783745,138.523056 27.331169,182.533600 23.276720,232.134750   C20.120638,270.745483 26.006918,308.196136 42.120018,343.691742   C67.674057,399.984863 109.235252,439.703644 166.334900,463.306580   C199.989075,477.218018 235.110413,480.905670 272.036530,478.702759  z"/>
<path fill="#707DFF" opacity="1.000000" stroke="none" d=" M271.573547,478.749390   C235.110413,480.905670 199.989075,477.218018 166.334900,463.306580   C109.235252,439.703644 67.674057,399.984863 42.120018,343.691742   C26.006918,308.196136 20.120638,270.745483 23.276720,232.134750   C27.331169,182.533600 45.783745,138.523056 78.615410,101.006508   C113.224190,61.459286 156.415482,35.773888 208.226730,26.654190   C280.867096,13.868194 346.084717,31.053225 402.064911,79.712753   C443.510925,115.738731 468.649963,161.503876 476.617126,215.630325   C487.018127,286.291656 468.781830,349.451385 421.274841,403.220581   C383.958099,445.456268 336.555389,469.504364 280.970276,477.734741   C278.009491,478.173096 275.015228,478.385284 271.573547,478.749390  M269.586731,157.941055   C265.388916,155.925690 261.021820,154.193802 257.040100,151.816513   C252.922150,149.357880 249.528366,149.395538 245.175522,151.731583   C229.145554,160.334457 212.343277,167.083847 194.395401,170.599457   C185.653839,172.311783 176.875153,173.834625 169.048569,175.271530   C169.048569,187.450165 168.402924,198.962326 169.218704,210.369995   C170.152222,223.424088 171.480515,236.579376 174.222351,249.350388   C182.318665,287.061737 201.715317,318.245026 232.605545,341.285858   C252.530640,356.147888 247.714157,355.059174 267.014008,343.302917   C267.297424,343.130249 267.556580,342.916351 267.820557,342.713226   C302.114563,316.324768 322.858948,281.617188 329.798706,239.084518   C332.412659,223.064194 332.663391,206.650040 333.800964,190.402069   C334.146484,185.466690 333.854462,180.486649 333.854462,175.081131   C311.827820,171.858948 290.245148,168.015366 269.586731,157.941055  z"/>
<path fill="none" opacity="1.000000" stroke="none" d=" M269.942474,158.074783   C290.245148,168.015366 311.827820,171.858948 333.854462,175.081131   C333.854462,180.486649 334.146484,185.466690 333.800964,190.402069   C332.663391,206.650040 332.412659,223.064194 329.798706,239.084518   C322.858948,281.617188 302.114563,316.324768 267.820557,342.713226   C267.556580,342.916351 267.297424,343.130249 267.014008,343.302917   C247.714157,355.059174 252.530640,356.147888 232.605545,341.285858   C201.715317,318.245026 182.318665,287.061737 174.222351,249.350388   C171.480515,236.579376 170.152222,223.424088 169.218704,210.369995   C168.402924,198.962326 169.048569,187.450165 169.048569,175.271530   C176.875153,173.834625 185.653839,172.311783 194.395401,170.599457   C212.343277,167.083847 229.145554,160.334457 245.175522,151.731583   C249.528366,149.395538 252.922150,149.357880 257.040100,151.816513   C261.021820,154.193802 265.388916,155.925690 269.942474,158.074783  z"/>
</svg>
